# xmcd CD database file
#
# Track frame offsets:
#	180
#	33027
#	64219
#	100532
#	135995
#	172354
#	244647
#
# Disc length: 3703 seconds
#
# Revision: 1
# Processed by: cddbd v1.5.2PL0 Copyright (c) Steve Scherf et al.
# Submitted via: CDex 1.70beta2
#
DISCID=530e7507
DTITLE=Chuck Carter Gene Markiewicz Jazz Quartet - Evolution Step 1
DYEAR=1996
DGENRE=Jazz
TTITLE0=If You Never Come To Me
TTITLE1=In A Sentimental Mood
TTITLE2=I Mean You
TTITLE3=Frandance
TTITLE4=Ornette Medley
TTITLE5=Left Lane
TTITLE6=Afro Blue
EXTD=YEAR: 1996
EXTT0=
EXTT1=
EXTT2=
EXTT3=
EXTT4=
EXTT5=
EXTT6=
PLAYORDER=
